<svg width="12" height="12" viewBox="0 0 12 12" fill="none" xmlns="http://www.w3.org/2000/svg">
<path d="M0.666668 2.00001C0.666668 1.64638 0.807144 1.30724 1.05719 1.0572C1.30724 0.807147 1.64638 0.666672 2 0.666672H3.33333C3.68696 0.666672 4.02609 0.807147 4.27614 1.0572C4.52619 1.30724 4.66667 1.64638 4.66667 2.00001V3.33334C4.66667 3.68696 4.52619 4.0261 4.27614 4.27615C4.02609 4.5262 3.68696 4.66667 3.33333 4.66667H2C1.64638 4.66667 1.30724 4.5262 1.05719 4.27615C0.807144 4.0261 0.666668 3.68696 0.666668 3.33334V2.00001ZM7.33333 2.00001C7.33333 1.64638 7.47381 1.30724 7.72386 1.0572C7.97391 0.807147 8.31305 0.666672 8.66667 0.666672H10C10.3536 0.666672 10.6928 0.807147 10.9428 1.0572C11.1929 1.30724 11.3333 1.64638 11.3333 2.00001V3.33334C11.3333 3.68696 11.1929 4.0261 10.9428 4.27615C10.6928 4.5262 10.3536 4.66667 10 4.66667H8.66667C8.31305 4.66667 7.97391 4.5262 7.72386 4.27615C7.47381 4.0261 7.33333 3.68696 7.33333 3.33334V2.00001ZM0.666668 8.66667C0.666668 8.31305 0.807144 7.97391 1.05719 7.72386C1.30724 7.47381 1.64638 7.33334 2 7.33334H3.33333C3.68696 7.33334 4.02609 7.47381 4.27614 7.72386C4.52619 7.97391 4.66667 8.31305 4.66667 8.66667V10C4.66667 10.3536 4.52619 10.6928 4.27614 10.9428C4.02609 11.1929 3.68696 11.3333 3.33333 11.3333H2C1.64638 11.3333 1.30724 11.1929 1.05719 10.9428C0.807144 10.6928 0.666668 10.3536 0.666668 10V8.66667ZM7.33333 8.66667C7.33333 8.31305 7.47381 7.97391 7.72386 7.72386C7.97391 7.47381 8.31305 7.33334 8.66667 7.33334H10C10.3536 7.33334 10.6928 7.47381 10.9428 7.72386C11.1929 7.97391 11.3333 8.31305 11.3333 8.66667V10C11.3333 10.3536 11.1929 10.6928 10.9428 10.9428C10.6928 11.1929 10.3536 11.3333 10 11.3333H8.66667C8.31305 11.3333 7.97391 11.1929 7.72386 10.9428C7.47381 10.6928 7.33333 10.3536 7.33333 10V8.66667Z" stroke="#999999" stroke-linecap="round" stroke-linejoin="round"/>
</svg>
