<svg width="16" height="12" viewBox="0 0 16 12" fill="none" xmlns="http://www.w3.org/2000/svg">
<path d="M11.3333 11.3333H14.6667V9.99999C14.6666 9.58435 14.5371 9.17904 14.2961 8.84041C14.0551 8.50178 13.7145 8.24665 13.3218 8.11049C12.9291 7.97433 12.5037 7.96391 12.1048 8.08067C11.7059 8.19743 11.3533 8.43557 11.096 8.76199M11.3333 11.3333H4.66667M11.3333 11.3333V9.99999C11.3333 9.56266 11.2493 9.14466 11.096 8.76199M11.096 8.76199C10.8484 8.1433 10.4212 7.61297 9.86933 7.23941C9.31749 6.86584 8.66639 6.66619 8 6.66619C7.33361 6.66619 6.68251 6.86584 6.13067 7.23941C5.57883 7.61297 5.15157 8.1433 4.904 8.76199M4.66667 11.3333H1.33333V9.99999C1.33336 9.58435 1.46289 9.17904 1.70391 8.84041C1.94493 8.50178 2.28546 8.24665 2.67817 8.11049C3.07088 7.97433 3.49625 7.96391 3.89516 8.08067C4.29407 8.19743 4.64669 8.43557 4.904 8.76199M4.66667 11.3333V9.99999C4.66667 9.56266 4.75067 9.14466 4.904 8.76199M10 2.66666C10 3.19709 9.78929 3.7058 9.41421 4.08087C9.03914 4.45594 8.53043 4.66666 8 4.66666C7.46957 4.66666 6.96086 4.45594 6.58579 4.08087C6.21071 3.7058 6 3.19709 6 2.66666C6 2.13622 6.21071 1.62752 6.58579 1.25244C6.96086 0.87737 7.46957 0.666656 8 0.666656C8.53043 0.666656 9.03914 0.87737 9.41421 1.25244C9.78929 1.62752 10 2.13622 10 2.66666ZM14 4.66666C14 5.02028 13.8595 5.35942 13.6095 5.60947C13.3594 5.85951 13.0203 5.99999 12.6667 5.99999C12.313 5.99999 11.9739 5.85951 11.7239 5.60947C11.4738 5.35942 11.3333 5.02028 11.3333 4.66666C11.3333 4.31303 11.4738 3.9739 11.7239 3.72385C11.9739 3.4738 12.313 3.33332 12.6667 3.33332C13.0203 3.33332 13.3594 3.4738 13.6095 3.72385C13.8595 3.9739 14 4.31303 14 4.66666ZM4.66667 4.66666C4.66667 5.02028 4.52619 5.35942 4.27614 5.60947C4.02609 5.85951 3.68696 5.99999 3.33333 5.99999C2.97971 5.99999 2.64057 5.85951 2.39052 5.60947C2.14048 5.35942 2 5.02028 2 4.66666C2 4.31303 2.14048 3.9739 2.39052 3.72385C2.64057 3.4738 2.97971 3.33332 3.33333 3.33332C3.68696 3.33332 4.02609 3.4738 4.27614 3.72385C4.52619 3.9739 4.66667 4.31303 4.66667 4.66666Z" stroke="#999999" stroke-linecap="round" stroke-linejoin="round"/>
</svg>
